# xmcd
#
# Track frame offsets: 
#        150
#        12160
#        31852
#        52972
#        71010
#        81462
#        98552
#        119447
#        140577
#        152520
#        176972
#        193115
#        207287
#        218855
#        245915
#        253807
#        285012
#        302802
#        317257
#
# Disc length: 4483 seconds
#
# Revision: 0
# Processed by: cddbd v1.5.1PL2 Copyright (c) Steve Scherf et al.
# Submitted via: ExactAudioCopy v0.95b3
#
DISCID=0e118113
DTITLE=Various Artist - Blues Guitar Experience
DYEAR=1993
DGENRE=Blues
TTITLE0=Lonnie Mack - Take It Home
TTITLE1=Phillip Walker and Otis Grand - She Torture Me
TTITLE2=Albert Collins - Frosty
TTITLE3=Buddy Guy - Buddy's Blues (part 2)
TTITLE4=Eric Clapton - West Coast Idea
TTITLE5=Muddy Waters - I Got My Mojo Working
TTITLE6=John Lee Hooker - Stomp Boogie
TTITLE7=Jimi Hendrix - Red House
TTITLE8=Jeff Beck - Steelin'
TTITLE9=Phil Guy - Stone Crazy
TTITLE10=B.B King - Outside Help
TTITLE11=Jimmy Page - Draggin' My Tail
TTITLE12=Earl Hooker - The Leading Brand
TTITLE13=Blyther Smith - I Was Coming Home
TTITLE14=Lurrie Bell - 1215 West Belmont Avenue
TTITLE15=Bobby Mack - All Night Long
TTITLE16=John Mayall and the Bluesbreakers - Telephone Blues
TTITLE17=Lowell Fulson - You're Gonna Miss Me
TTITLE18=Lefty Dizz - Ain't It Nice To Be Loved
EXTD=
EXTT0=
EXTT1=
EXTT2=
EXTT3=
EXTT4=
EXTT5=
EXTT6=
EXTT7=
EXTT8=
EXTT9=
EXTT10=
EXTT11=
EXTT12=
EXTT13=
EXTT14=
EXTT15=
EXTT16=
EXTT17=
EXTT18=
PLAYORDER=
